{"title":"Millwall FC Promotion Goals dvd","uid":5624953,"size":2138688646,"categoryP":"video","categoryS":"movies_dvdr","magnet":"?xt=urn:btih:84ec62dbfc317232891f23c9646607475623af5c&amp;dn=Millwall+FC+Promotion+Goals+dvd&amp;tr=udp%3A%2F%2Ftracker.openbittorrent.com%3A80&amp;tr=udp%3A%2F%2Fopen.demonii.com%3A1337&amp;tr=udp%3A%2F%2Ftracker.coppersurfer.tk%3A6969&amp;tr=udp%3A%2F%2Fexodus.desync.com%3A6969","seeders":0,"leechers":1,"uploader":"oddbod","files":8,"time":1276445629,"description":"MILLWALL FC PROMOTION GOALS DVD &amp; COVERS\n\nThe 2009/2010 season\n\nSee the mighty lions return to the English championship after a 4 year exile.\n\nNow you can sit back and watch EVERY goal scored by the lads knowing the win promotion at the end of the season from Southampton to Wembley !\n\nEnjoy.\n\n\nFile info :\n\nFormat                           : MPEG-PS\nFile size                        : 1 024 MiB\nDuration                         : 33mn 34s\nOverall bit rate                 : 4 264 Kbps\n\nVideo\nID                               : 224 (0xE0)\nFormat                           : MPEG Video\nFormat version                   : Version 2\nDuration                         : 33mn 34s\nBit rate                         : 3 967 Kbps\nWidth                            : 720 pixels\nHeight                           : 576 pixels\nDisplay aspect ratio             : 16/9\nFrame rate                       : 25.000 fps\nStandard                         : PAL\nColorimetry                      : 4:2:0\nScan type                        : Progressive\nBits/(Pixel*Frame)               : 0.383\nStream size                      : 952 MiB (93%)\n\nAudio\nID                               : 128 (0x80)\nFormat                           : AC-3\nFormat/Info                      : Audio Coding 3\nDuration                         : 33mn 34s\nBit rate mode                    : Constant\nBit rate                         : 128 Kbps\nChannel(s)                       : 2 channels\nChannel positions                : L R\nSampling rate                    : 48.0 KHz\nStream size                      : 30.7 MiB (3%)\n\nMenu\nFormat                           : DVD-Video\n\nGeneral\n\nFormat                           : MPEG-PS\nFile size                        : 1 014 MiB\nDuration                         : 33mn 9s\nOverall bit rate                 : 4 277 Kbps\n\nVideo\nID                               : 224 (0xE0)\nFormat                           : MPEG Video\nFormat version                   : Version 2\nDuration                         : 33mn 8s\nBit rate                         : 3 980 Kbps\nWidth                            : 720 pixels\nHeight                           : 576 pixels\nDisplay aspect ratio             : 16/9\nFrame rate                       : 25.000 fps\nStandard                         : PAL\nColorimetry                      : 4:2:0\nScan type                        : Progressive\nBits/(Pixel*Frame)               : 0.384\nStream size                      : 943 MiB (93%)\n\nAudio\nID                               : 128 (0x80)\nFormat                           : AC-3\nFormat/Info                      : Audio Coding 3\nDuration                         : 33mn 9s\nBit rate mode                    : Constant\nBit rate                         : 128 Kbps\nChannel(s)                       : 2 channels\nChannel positions                : L R\nSampling rate                    : 48.0 KHz\nVideo delay                      : -136ms\nStream size                      : 30.4 MiB (3%)\n\nMenu\nFormat                           : DVD-Video (vob)\n\n   ","torrent":{"xt":"urn:btih:84ec62dbfc317232891f23c9646607475623af5c","amp;dn":"Millwall+FC+Promotion+Goals+dvd","amp;tr":["udp%3A%2F%2Ftracker.openbittorrent.com%3A80","udp%3A%2F%2Fopen.demonii.com%3A1337","udp%3A%2F%2Ftracker.coppersurfer.tk%3A6969","udp%3A%2F%2Fexodus.desync.com%3A6969"],"infoHash":"84ec62dbfc317232891f23c9646607475623af5c","infoHashBuffer":{"type":"Buffer","data":[132,236,98,219,252,49,114,50,137,31,35,201,100,102,7,71,86,35,175,92]},"announce":[],"urlList":[]}}